Coordinates
version=1
nRows=10
nColumns=22
inDegrees=yes

Units are S.I. units (second, meters, Newtons, ...)
If the header above contains a line with 'inDegrees', this indicates whether rotational values are in degrees (yes) or radians (no).

endheader
time	pelvis_tilt	pelvis_list	pelvis_rotation	pelvis_tx	pelvis_ty	pelvis_tz	hip_flexion_r	hip_adduction_r	hip_rotation_r	knee_angle_r	ankle_angle_r	subtalar_angle_r	hip_flexion_l	hip_adduction_l	hip_rotation_l	knee_angle_l	ankle_angle_l	subtalar_angle_l	lumbar_extension	lumbar_bending	lumbar_rotation
      3.93000000	      3.05152315	     -0.80817483	     77.77978082	      0.51389183	      0.92625617	     -0.47125236	     25.43947431	      4.51350400	      4.21122702	    -24.33809423	      1.98407129	      1.47585175	     -3.01216499	      4.09238437	     18.62019711	    -42.55313349	      3.99557961	      8.55013952	     -6.03316268	      3.97481674	     -8.69892954
      3.94000000	      3.11756094	     -0.63131712	     78.01068236	      0.51777474	      0.92783915	     -0.47857614	     24.76426385	      4.59466391	      3.80981825	    -24.41152807	      2.24789817	      1.16176637	     -2.10401526	      3.82339291	     17.38164528	    -44.52197968	      2.58741726	     10.70590423	     -6.19215276	      4.00007121	     -8.45804212
      3.95000000	      3.16085759	     -0.51126912	     78.20075193	      0.52168468	      0.92926044	     -0.48563306	     24.14273745	      4.69269797	      3.44537372	    -24.43611444	      2.47584165	      0.82033553	     -1.07048235	      3.50642577	     16.07124920	    -46.50811033	      1.33808077	     12.47073914	     -6.29272133	      3.98682577	     -8.14322682
      3.96000000	      3.19876582	     -0.37862702	     78.40142646	      0.52555004	      0.93064064	     -0.49245173	     23.48808314	      4.79682645	      3.12899596	    -24.40810935	      2.74821484	      0.44324395	     -0.01523904	      3.14937049	     14.80917831	    -48.47886552	      0.28918786	     14.03754108	     -6.41643187	      3.94457036	     -7.85900495
      3.97000000	      3.22869336	     -0.30860408	     78.56175412	      0.52945619	      0.93184428	     -0.49901434	     22.91517027	      4.93354140	      2.86104945	    -24.37698720	      3.00317067	      0.10736728	      1.14076013	      2.71686040	     13.49034013	    -50.42813562	     -0.52520511	     15.15567671	     -6.47769069	      3.88450176	     -7.51436426
      3.98000000	      3.25813931	     -0.27743295	     78.68167750	      0.53339059	      0.93292266	     -0.50535439	     22.39712105	      5.10054344	      2.63947693	    -24.34545954	      3.24801202	     -0.16902453	      2.34563513	      2.20603033	     12.13524440	    -52.31429384	     -1.07471192	     15.83941564	     -6.50196202	      3.81499798	     -7.12727291
      3.99000000	      3.28170051	     -0.27566964	     78.78134913	      0.53731510	      0.93389399	     -0.51146810	     21.92756323	      5.28540297	      2.48667917	    -24.31975320	      3.50298846	     -0.40698045	      3.58178615	      1.63430770	     10.79137126	    -54.11715787	     -1.36210133	     16.12021059	     -6.50186381	      3.73414180	     -6.73881974
      4.00000000	      3.30419787	     -0.31181846	     78.85268216	      0.54123624	      0.93475638	     -0.51740133	     21.51913519	      5.49052430	      2.37973365	    -24.31096137	      3.75732750	     -0.60844486	      4.83740647	      0.99466023	      9.44789051	    -55.80159412	     -1.40261765	     15.92755875	     -6.46275407	      3.65270502	     -6.33647608
      4.01000000	      3.32401195	     -0.38479193	     78.90935663	      0.54512775	      0.93552492	     -0.52318212	     21.16503492	      5.70818734	      2.31494611	    -24.31177379	      4.02930102	     -0.79977134	      6.09856064	      0.30517647	      8.13635383	    -57.34327339	     -1.29507587	     15.06425812	     -6.38292459	      3.57373113	     -5.94597198
      4.02000000	      3.36657333	     -0.43019444	     78.95387208	      0.54899805	      0.93635257	     -0.52888841	     20.76775767	      5.94624405	      2.27198557	    -24.28738438	      4.28853888	     -0.90455462	      7.25521136	     -0.44240015	      6.86966979	    -58.68421336	     -1.02873456	     13.68710781	     -6.33462286	      3.51132731	     -5.54303741
